# Made in Blockbench 4.11.2
mtllib tree2.mtl

o cylinder
v 0 0.875 0
v 0 2.75 0
v 0.3632712640026804 0.875 0.49999999999999994
v 0.05425426962773306 2.75 -8.326672684688674e-17
v 0.5877852522924731 0.875 -0.1909830056250525
v 0.08778525229247318 2.75 -0.0729490168751577
v 7.5687334608683e-17 0.875 -0.6180339887498948
v 5.852444790921728e-17 2.75 -0.11803398874989476
v -0.587785252292473 0.875 -0.19098300562505263
v -0.08778525229247307 2.75 -0.07294901687515772
v -0.36327126400268056 0.875 0.4999999999999999
v -0.05425426962773299 2.75 -8.326672684688674e-17
vt 0.889134375 0.6380125
vt 0.8330046875 0.8107578125
vt 0.7421875 0.6857578125
vt 0.005429486537413819 1
vt 0.04055848767670124 0.8217950633102534
vt 0.5 0.980337424284595
vt 0.4966670419444543 1
vt 0.3338765625 0.6423671875
vt 0.34225937500000003 0.6606046875
vt 0.3203125 0.6423671875
vt 0.7421875 0.53125
vt 0.889134375 0.6380125
vt 0.7421875 0.6857578125
vt 0.125 0.828125
vt 0.1563109870464815 0.6492097455586425
vt 0.6160011629291944 0.8042461136132919
vt 0.6110132629443485 0.828125
vt 0.34225937500000003 0.6606046875
vt 0.3203125 0.671875
vt 0.3203125 0.6423671875
vt 0.595240625 0.6380125
vt 0.7421875 0.53125
vt 0.7421875 0.6857578125
vt 0.421875 0.13407290283963835
vt 0.59375 0.10276280817003958
vt 0.59375 0.5887899231006306
vt 0.5769066511630343 0.59375
vt 0.3203125 0.671875
vt 0.298365625 0.6606046875
vt 0.3203125 0.6423671875
vt 0.6513703125 0.8107578125
vt 0.595240625 0.6380125
vt 0.7421875 0.6857578125
vt 0.0625 0.18118932708397884
vt 0.234375 0.14606065482147823
vt 0.234375 0.637302809224676
vt 0.2210403043059076 0.640625
vt 0.298365625 0.6606046875
vt 0.3067484375 0.6423671875
vt 0.3203125 0.6423671875
vt 0.8330046875 0.8107578125
vt 0.6513703125 0.8107578125
vt 0.7421875 0.6857578125
vt 0.25 0.23618061410725621
vt 0.421875 0.20761665066844714
vt 0.421875 0.6988588099098068
vt 0.402583745855716 0.703125
vt 0.0020609375000000003 1
vt 0.0291890625 1
vt 0.015625 1
vn 0 -1 0
vn 0.9260079385909911 0.22799472697774628 0.3008782181162447
vn 0 1 0
vn 0 -1 0
vn 0.5745663435959457 0.2108860606497834 -0.7908227274366877
vn 0 1 0
vn 0 -1 0
vn -0.5755061842378812 0.20333319434683014 -0.7921163071043724
vn 0 1 0
vn 0 -1 0
vn -0.9249739709330248 0.2325886971745254 0.3005422616589033
vn 0 1 0
vn 0 -1 0
vn -7.382474086463151e-17 0.25766265056033233 0.9662349396012463
vn 0 -1 0
usemtl m_e4462868-f312-4956-be12-f08dafa02cc3
f 5/1/1 3/2/1 1/3/1
f 3/4/2 5/5/2 6/6/2 4/7/2
f 4/8/3 6/9/3 2/10/3
f 7/11/4 5/12/4 1/13/4
f 5/14/5 7/15/5 8/16/5 6/17/5
f 6/18/6 8/19/6 2/20/6
f 9/21/7 7/22/7 1/23/7
f 7/24/8 9/25/8 10/26/8 8/27/8
f 8/28/9 10/29/9 2/30/9
f 11/31/10 9/32/10 1/33/10
f 9/34/11 11/35/11 12/36/11 10/37/11
f 10/38/12 12/39/12 2/40/12
f 3/41/13 11/42/13 1/43/13
f 11/44/14 3/45/14 4/46/14 12/47/14
f 12/48/15 4/49/15 2/50/15
o cuboid
v 0.03125 1.25 0.03125
v 0.03125 1.25 -0.03125
v 0.09375 0 0.09375
v 0.09375 0 -0.09375
v -0.03125 1.25 0.03125
v -0.03125 1.25 -0.03125
v -0.09375 0 0.09375
v -0.09375 0 -0.09375
vt 0.484375 0.7179706964369675
vt 0.4687111076994486 0.71875
vt 0.4375 0.40702808772230326
vt 0.484375 0.404690177033206
vt 0.046875 0.13906517703320598
vt 0.046875 0.45234569643696754
vt 0.031211107699448643 0.453125
vt 0 0.14140308772230326
vt 0 0.828125
vt 0.015625 0.828125
vt 0.015625 0.84375
vt 0 0.84375
vt 0.359375 0.84375
vt 0.359375 0.890625
vt 0.3125 0.890625
vt 0.3125 0.84375
vt 0.109375 0.498440177033206
vt 0.109375 0.8117206964369675
vt 0.09371110769944864 0.8125
vt 0.0625 0.5007780877223033
vt 0.046875 0.7960956964369675
vt 0.031211107699448643 0.796875
vt 0 0.48515308772230326
vt 0.046875 0.482815177033206
vn 0.9987523388778448 0.049937616943892246 0
vn -0.9987523388778448 0.049937616943892246 0
vn 0 1 0
vn 0 -1 0
vn 0 0.049937616943892246 0.9987523388778448
vn 0 0.049937616943892246 -0.9987523388778448
usemtl m_e4462868-f312-4956-be12-f08dafa02cc3
f 14/51/16 13/52/16 15/53/16 16/54/16
f 19/55/17 17/56/17 18/57/17 20/58/17
f 17/59/18 13/60/18 14/61/18 18/62/18
f 16/63/19 15/64/19 19/65/19 20/66/19
f 15/67/20 13/68/20 17/69/20 19/70/20
f 18/71/21 14/72/21 16/73/21 20/74/21